<?xml version="1.0" standalone="no"?>
<!DOCTYPE svg PUBLIC "-//W3C//DTD SVG 20010904//EN"
 "http://www.w3.org/TR/2001/REC-SVG-20010904/DTD/svg10.dtd">
<svg version="1.0" xmlns="http://www.w3.org/2000/svg"
 width="1788.000000pt" height="2000.000000pt" viewBox="0 0 1788.000000 2000.000000"
 preserveAspectRatio="xMidYMid meet">

<g transform="translate(0.000000,2000.000000) scale(0.100000,-0.100000)"
fill="#fff" stroke="none">
<path d="M1315 19389 c-286 -53 -517 -242 -613 -501 l-27 -73 -3 -8865 c-2
-8096 -1 -8871 14 -8938 32 -148 138 -311 265 -407 83 -62 202 -119 309 -147
l85 -23 7550 0 7550 0 85 23 c272 72 482 256 563 492 l22 65 3 8880 c2 7884 0
8886 -13 8940 -62 248 -264 446 -550 538 l-70 22 -7560 1 c-4594 1 -7580 -2
-7610 -7z m15179 -309 c31 -10 79 -31 106 -46 68 -37 165 -140 198 -211 l27
-58 3 -6642 2 -6643 -7930 0 -7930 0 0 1599 0 1599 88 16 c243 44 588 47 857
6 861 -130 1894 -598 3040 -1378 544 -371 1225 -899 1618 -1255 48 -44 90 -78
92 -76 2 3 22 78 45 169 485 1941 1635 3469 3443 4574 1443 882 3337 1481
5407 1710 378 42 851 76 1065 76 61 0 127 3 148 6 l37 7 0 1133 0 1134 -72 0
c-283 0 -926 -49 -1388 -106 -2460 -302 -4609 -1119 -6115 -2327 -314 -252
-769 -689 -1007 -967 -757 -887 -1274 -1912 -1543 -3062 l-18 -77 -46 40
c-727 636 -1434 1165 -2151 1611 -1360 845 -2523 1211 -3376 1063 -49 -9 -99
-18 -110 -21 l-22 -6 5 3909 5 3908 30 66 c49 110 157 199 305 254 32 12 1136
14 7584 14 7471 1 7546 1 7603 -19z m-14039 -15035 c80 -21 144 -58 199 -114
l47 -48 -36 -27 -36 -28 -47 44 c-120 112 -290 135 -442 61 -262 -128 -264
-524 -2 -657 71 -36 167 -51 243 -37 80 14 137 42 199 97 l49 45 37 -27 37
-28 -56 -52 c-95 -88 -190 -123 -338 -124 -132 0 -232 36 -316 113 -152 140
-194 357 -105 547 49 106 181 211 299 239 62 15 204 12 268 -4z m887 -6 c307
-103 413 -470 211 -725 -85 -106 -212 -164 -359 -164 -345 0 -558 342 -409
657 54 116 151 198 280 239 65 21 206 17 277 -7z m2463 6 c74 -20 146 -56 213
-107 l53 -41 -34 -35 -35 -34 -54 40 c-149 113 -310 137 -453 68 -82 -41 -131
-89 -172 -172 -33 -68 -37 -83 -36 -152 0 -102 28 -174 94 -247 178 -194 504
-167 605 49 41 88 44 86 -111 86 l-135 0 0 45 0 45 191 0 192 0 -7 -61 c-27
-235 -192 -379 -435 -379 -210 0 -373 96 -455 270 -29 61 -31 72 -31 186 0
119 0 121 38 196 59 120 179 218 304 247 62 15 204 12 268 -4z m1747 -6 c307
-103 413 -470 211 -725 -85 -106 -212 -164 -359 -164 -345 0 -558 342 -409
657 54 116 151 198 280 239 65 21 206 17 277 -7z m3270 -21 c94 -47 176 -130
220 -224 26 -55 32 -82 36 -160 9 -174 -47 -298 -181 -399 -145 -110 -370
-114 -524 -10 -94 63 -176 188 -189 288 l-7 47 -138 0 -139 0 0 -195 0 -195
-85 0 -85 0 0 435 0 435 220 0 220 0 0 -80 0 -80 -135 0 -135 0 0 -80 0 -80
135 0 135 0 1 -37 c0 -33 2 -29 14 24 34 158 154 284 320 339 25 9 77 13 141
11 94 -2 106 -5 176 -39z m3990 0 c94 -47 176 -130 220 -224 26 -55 32 -82 36
-160 9 -174 -47 -298 -181 -399 -185 -141 -474 -105 -618 78 -209 261 -96 627
226 733 25 9 77 13 141 11 94 -2 106 -5 176 -39z m-10982 -368 l0 -390 165 0
165 0 0 -45 0 -45 -215 0 -215 0 0 435 0 435 50 0 50 0 0 -390z m470 0 l0
-390 165 0 165 0 0 -45 0 -45 -215 0 -215 0 0 435 0 435 50 0 50 0 0 -390z
m870 345 l0 -45 -205 0 -205 0 0 -135 0 -135 200 0 200 0 0 -45 0 -45 -200 0
-200 0 0 -165 0 -165 200 0 200 0 0 -45 0 -45 -250 0 -250 0 0 435 0 435 255
0 255 0 0 -45z m1520 0 l0 -45 -205 0 -205 0 0 -135 0 -135 200 0 200 0 0 -45
0 -45 -200 0 -200 0 0 -165 0 -165 200 0 200 0 0 -45 0 -45 -250 0 -250 0 0
435 0 435 255 0 255 0 0 -45z m1690 0 l0 -45 -170 0 -170 0 0 -135 0 -135 170
0 170 0 0 -45 0 -45 -170 0 -170 0 0 -210 0 -210 -50 0 -50 0 0 435 0 435 220
0 220 0 0 -45z m450 -390 l0 -435 -85 0 -85 0 0 435 0 435 85 0 85 0 0 -435z
m445 155 l180 -279 3 280 2 279 85 0 85 0 0 -435 0 -435 -84 0 -84 0 -178 275
-179 275 -3 -275 -2 -275 -85 0 -85 0 0 435 0 435 83 0 82 0 180 -280z m2267
252 c102 -50 152 -180 117 -306 -12 -45 -77 -119 -119 -136 -17 -7 -30 -14
-30 -16 0 -7 174 -333 177 -331 1 1 31 173 67 382 37 209 69 392 72 408 6 27
6 27 89 27 l83 0 100 -297 99 -298 99 298 99 298 85 -3 84 -3 66 -392 c35
-216 67 -393 70 -393 3 0 74 177 157 393 l151 392 89 3 89 3 148 -388 c82
-213 157 -410 167 -436 l19 -48 -91 3 -91 3 -32 85 -32 85 -174 3 -175 2 -35
-90 -35 -90 -156 0 -156 0 -21 123 c-12 67 -32 184 -44 260 -12 75 -25 137
-28 137 -3 0 -44 -116 -91 -257 l-86 -258 -78 0 -78 0 -87 260 c-58 173 -89
253 -93 240 -6 -19 -87 -484 -87 -498 0 -4 -74 -7 -164 -7 l-165 0 -98 188
-98 187 -3 -187 -2 -188 -85 0 -85 0 0 436 0 436 173 -4 c155 -3 177 -5 219
-26z m2578 -407 l0 -435 -85 0 -85 0 0 355 0 355 -80 0 -80 0 0 -355 0 -355
-90 0 -90 0 0 355 0 355 -75 0 -75 0 0 80 0 80 330 0 330 0 0 -435z m1355 155
l180 -279 3 280 2 279 85 0 85 0 0 -435 0 -435 -84 0 -84 0 -178 275 -179 275
-3 -275 -2 -275 -85 0 -85 0 0 435 0 435 83 0 82 0 180 -280z m-11794 -836
c77 -23 158 -68 207 -116 l43 -41 -57 -58 -57 -58 -32 27 c-109 97 -244 124
-361 73 -105 -46 -166 -144 -166 -264 0 -173 115 -290 287 -291 88 0 129 14
205 70 33 24 62 44 64 44 2 0 29 -26 60 -57 l56 -58 -33 -28 c-122 -107 -221
-142 -380 -135 -94 4 -112 8 -179 40 -137 65 -225 184 -249 337 -47 286 163
529 457 530 46 1 104 -6 135 -15z m2431 -26 c94 -47 176 -130 220 -224 26 -55
32 -82 36 -160 9 -174 -47 -298 -181 -399 -185 -141 -474 -105 -618 78 -209
261 -96 627 226 733 25 9 77 13 141 11 94 -2 106 -5 176 -39z m1370 0 c94 -47
176 -130 220 -224 26 -55 32 -82 36 -160 9 -174 -47 -298 -181 -399 -185 -141
-474 -105 -618 78 -209 261 -96 627 226 733 25 9 77 13 141 11 94 -2 106 -5
176 -39z m881 27 c77 -20 143 -54 197 -103 l45 -40 -59 -61 -59 -60 -42 34
c-68 56 -129 78 -215 78 -98 0 -165 -28 -224 -94 -151 -167 -68 -418 156 -475
116 -30 242 10 291 94 l19 32 -126 0 -126 0 0 80 0 80 225 0 225 0 0 -29 c0
-160 -104 -326 -247 -394 -59 -27 -81 -32 -169 -35 -157 -6 -253 28 -354 124
-102 97 -145 208 -138 358 3 76 9 102 36 159 55 119 171 219 291 253 64 17
206 17 274 -1z m3788 -1 c77 -23 158 -68 207 -116 l43 -41 -57 -58 -57 -58
-32 27 c-109 97 -244 124 -361 73 -105 -46 -166 -144 -166 -264 0 -173 115
-290 287 -291 88 0 129 14 205 70 33 24 62 44 64 44 2 0 29 -26 60 -57 l56
-58 -33 -28 c-122 -107 -221 -142 -380 -135 -94 4 -112 8 -179 40 -137 65
-225 184 -249 337 -47 286 163 529 457 530 46 1 104 -6 135 -15z m2371 -26
c94 -47 176 -130 220 -224 26 -55 32 -82 36 -160 9 -174 -47 -298 -181 -399
-185 -141 -474 -105 -618 78 -209 261 -96 627 226 733 25 9 77 13 141 11 94
-2 106 -5 176 -39z m-11942 -58 l0 -80 -80 0 -80 0 0 -355 0 -355 -90 0 -90 0
0 355 0 355 -75 0 -75 0 0 80 0 80 245 0 245 0 0 -80z m490 0 l0 -80 -155 0
-155 0 0 -80 0 -80 155 0 155 0 0 -80 0 -80 -155 0 -155 0 0 -115 0 -115 155
0 155 0 0 -80 0 -80 -240 0 -240 0 0 435 0 435 240 0 240 0 0 -80z m1080 -85
l0 -165 140 0 140 0 0 165 0 165 90 0 90 0 0 -435 0 -435 -90 0 -90 0 0 190 0
190 -140 0 -140 0 0 -190 0 -190 -90 0 -90 0 0 435 0 435 90 0 90 0 0 -165z
m905 -115 l180 -279 3 280 2 279 85 0 85 0 0 -435 0 -435 -84 0 -84 0 -178
275 -179 275 -3 -275 -2 -275 -85 0 -85 0 0 435 0 435 83 0 82 0 180 -280z
m1555 -75 l0 -355 120 0 120 0 0 -80 0 -80 -205 0 -205 0 0 435 0 435 85 0 85
0 0 -355z m2284 248 c30 -60 65 -128 79 -151 l25 -44 78 151 79 151 88 0 c48
0 87 -3 87 -6 0 -4 -56 -116 -125 -250 l-125 -242 0 -186 0 -186 -85 0 -85 0
0 186 0 187 -125 243 c-69 133 -125 245 -125 248 0 3 40 6 90 6 l90 0 54 -107z
m1216 27 l0 -80 -155 0 -155 0 0 -80 0 -80 155 0 155 0 0 -80 0 -80 -155 0
-155 0 0 -115 0 -115 155 0 155 0 0 -80 0 -80 -240 0 -240 0 0 435 0 435 240
0 240 0 0 -80z m477 56 c98 -31 191 -125 235 -236 19 -47 22 -75 23 -185 0
-127 -1 -132 -34 -202 -39 -84 -114 -162 -188 -196 -43 -19 -69 -22 -255 -25
l-208 -4 0 437 0 437 188 -4 c139 -4 200 -9 239 -22z m495 -299 c3 -361 4
-364 75 -394 47 -19 95 -10 136 27 l32 28 3 331 3 331 84 0 85 0 0 -333 c0
-280 -3 -341 -16 -381 -22 -64 -95 -138 -158 -159 -63 -22 -169 -22 -231 0
-62 21 -148 103 -166 158 -9 28 -14 142 -16 378 l-4 337 85 0 85 0 3 -323z
m1952 -64 c82 -214 157 -410 167 -436 l19 -48 -91 3 -91 3 -32 85 -32 85 -174
3 -175 2 -35 -90 -35 -90 -89 0 c-79 0 -88 2 -83 18 2 9 74 197 159 417 85
220 157 408 161 418 5 14 20 17 95 17 l88 0 148 -387z m786 -48 l0 -435 -85 0
-85 0 0 355 0 355 -80 0 -80 0 0 -355 0 -355 -90 0 -90 0 0 355 0 355 -75 0
-75 0 0 80 0 80 330 0 330 0 0 -435z m1365 155 l180 -279 3 280 2 279 85 0 85
0 0 -435 0 -435 -84 0 -84 0 -178 275 -179 275 -3 -275 -2 -275 -85 0 -85 0 0
435 0 435 83 0 82 0 180 -280z"/>
<path d="M6334 18030 c3 -448 9 -1392 13 -2098 l6 -1282 -251 2 -250 3 -4 295
-3 295 55 7 c30 4 109 13 175 20 l120 13 -4 110 c-2 61 -5 112 -7 114 -2 2
-47 -2 -101 -8 -54 -6 -129 -12 -168 -14 l-70 -2 -3 568 c-1 347 1 567 7 567
14 0 219 -199 271 -264 25 -30 48 -55 52 -56 7 0 -1 550 -8 558 -1 2 -49 11
-106 20 -150 23 -498 22 -643 -1 -262 -43 -475 -108 -700 -216 -483 -232 -863
-605 -1095 -1076 -162 -328 -234 -641 -233 -1010 1 -212 14 -335 58 -520 197
-834 866 -1505 1716 -1720 225 -57 325 -69 604 -69 225 0 277 3 385 22 442 79
798 236 1130 501 243 194 470 468 601 726 l41 80 -106 220 -106 220 -113 -4
-114 -3 -6 77 c-4 43 -7 110 -7 148 l0 70 -156 -6 c-86 -3 -157 -7 -158 -9 -1
-2 -1 -67 2 -145 l4 -143 158 7 157 6 7 -142 c4 -79 6 -145 3 -147 -2 -2 -72
-7 -155 -11 l-151 -6 -5 24 c-3 13 -7 77 -8 141 -2 64 -6 119 -9 123 -4 3 -75
3 -159 -1 l-152 -7 6 -71 c3 -39 9 -171 12 -293 l7 -223 -158 0 -158 0 8 -149
7 -149 -269 -7 c-147 -4 -288 -8 -313 -9 l-45 -1 -8 139 c-4 76 -5 142 -1 145
3 3 73 8 156 11 l150 5 -1 125 c-1 69 -3 134 -4 145 -2 19 6 20 152 27 84 4
155 8 156 10 2 2 1 68 -2 147 l-6 144 -90 -7 c-50 -3 -120 -6 -156 -6 l-66 0
3 -144 3 -143 -38 -6 c-21 -4 -91 -7 -155 -7 l-118 0 7 -150 6 -150 -134 0
c-74 0 -145 -3 -158 -7 l-24 -6 7 -144 7 -143 -105 -2 c-58 -1 -130 -2 -158
-3 l-53 0 -11 285 c-6 157 -9 288 -7 293 2 4 57 7 121 7 64 0 133 3 152 6 l35
6 -5 138 c-3 76 -7 140 -10 143 -3 2 -74 2 -157 -1 l-153 -5 7 -142 c3 -81 2
-144 -3 -147 -5 -3 -147 -9 -316 -13 l-308 -8 0 124 c0 68 -3 133 -6 144 -5
19 -12 20 -158 17 l-153 -4 -6 93 c-4 50 -7 117 -7 147 l0 54 -82 -6 c-46 -3
-187 -8 -314 -12 l-231 -6 -6 92 c-4 51 -7 110 -7 132 l0 38 469 0 c418 0 470
-2 475 -16 3 -9 6 -61 6 -116 l0 -101 113 6 c61 4 131 7 155 7 l42 0 0 110 0
110 335 0 335 0 0 -255 0 -255 105 0 105 0 0 255 0 255 345 0 345 0 0 -79 c0
-44 3 -82 8 -84 4 -2 76 -2 161 1 l153 5 -4 78 -5 79 334 0 c183 0 333 2 333
5 0 3 -17 46 -37 95 l-36 90 -193 0 -192 0 -7 68 c-13 144 -37 327 -43 333 -4
3 -50 -42 -103 -100 l-95 -107 7 -69 c4 -39 8 -82 8 -97 l1 -28 -215 0 c-118
0 -215 3 -215 8 1 8 827 855 840 860 4 2 28 -50 53 -115 26 -65 71 -181 101
-258 101 -262 138 -355 231 -595 20 -52 53 -135 72 -185 19 -49 45 -117 58
-150 13 -33 44 -114 69 -180 84 -217 105 -252 179 -303 151 -105 356 -64 453
90 34 53 57 151 49 203 -3 24 -58 177 -121 342 -64 164 -128 332 -144 373 -16
41 -110 284 -210 539 -99 255 -179 466 -177 467 2 2 275 -20 608 -50 332 -29
605 -53 607 -51 1 1 -282 337 -630 747 -348 409 -745 877 -883 1039 -137 162
-299 353 -360 424 -61 72 -266 312 -454 535 -189 223 -355 416 -369 430 l-24
25 6 -815z m-1141 -1497 c-187 -210 -336 -430 -456 -675 -45 -92 -86 -167 -91
-168 -33 -1 -506 252 -506 271 0 4 47 52 106 108 218 209 457 360 734 466 76
29 254 83 278 84 7 1 -22 -38 -65 -86z m427 -483 c0 -536 -1 -570 -17 -570
-52 0 -253 23 -358 41 -121 20 -333 71 -361 87 -12 7 -1 35 61 160 84 167 205
355 323 502 80 99 325 350 342 350 7 0 10 -201 10 -570z m-1495 -353 c91 -56
413 -217 434 -217 16 0 14 -10 -23 -135 -41 -136 -84 -365 -97 -505 -18 -208
-11 -190 -74 -190 l-55 0 0 75 0 75 -107 0 c-60 0 -132 -3 -160 -6 l-53 -7 6
-68 7 -69 -202 0 -201 0 0 23 c0 44 21 193 41 297 46 233 164 520 298 728 l53
83 27 -18 c14 -9 62 -39 106 -66z m805 -341 c168 -47 356 -77 623 -101 l67 -7
-2 -296 -3 -297 -480 0 -480 0 3 70 c7 164 74 516 121 639 13 32 5 33 151 -8z
m-898 -1581 c3 -77 3 -143 0 -147 -4 -3 -74 -8 -157 -10 l-150 -3 -8 135 c-4
74 -5 140 -2 147 3 11 173 21 290 18 19 0 20 -9 27 -140z m640 -272 c2 -76 2
-141 -1 -144 -3 -4 -74 -9 -157 -13 l-151 -6 -6 141 c-4 78 -4 145 -1 150 3 5
74 9 159 9 l153 0 4 -137z m323 -284 c4 -77 6 -141 4 -143 -2 -2 -72 -6 -155
-10 l-151 -7 -6 53 c-4 29 -7 94 -7 145 l0 92 43 4 c23 2 92 4 153 5 l112 2 7
-141z"/>
<path d="M4949 17141 c-65 -65 -17 -181 74 -181 94 0 143 115 78 181 -24 24
-38 29 -76 29 -38 0 -52 -5 -76 -29z"/>
<path d="M4282 16980 c-52 -32 -72 -74 -72 -154 0 -69 0 -70 45 -112 89 -86
216 -65 273 46 41 80 8 186 -71 223 -49 24 -134 22 -175 -3z"/>
<path d="M3679 16667 c-24 -13 -59 -43 -76 -66 -30 -39 -33 -48 -33 -117 0
-46 6 -86 14 -103 20 -38 92 -101 115 -101 11 0 23 -4 26 -10 11 -17 72 -11
128 13 61 28 98 67 122 132 64 167 -135 337 -296 252z"/>
<path d="M3264 16156 c-87 -40 -134 -118 -134 -220 0 -58 18 -101 60 -150 49
-56 97 -76 178 -76 59 0 75 4 122 33 45 26 60 43 88 97 29 56 33 72 29 116 -7
67 -36 123 -89 168 -71 61 -166 73 -254 32z"/>
<path d="M2960 15601 c-50 -16 -87 -40 -123 -80 -49 -55 -67 -101 -67 -176 0
-75 18 -121 67 -176 50 -55 105 -81 183 -87 59 -4 71 -1 130 30 239 124 165
479 -103 494 -34 2 -73 0 -87 -5z"/>
<path d="M2780 14951 c-117 -38 -200 -151 -200 -271 0 -180 181 -316 353 -266
79 23 136 70 174 145 40 75 43 143 13 223 -22 58 -82 124 -140 154 -39 19
-159 29 -200 15z"/>
<path d="M2833 14246 c-123 -39 -193 -133 -193 -258 1 -242 300 -353 461 -170
71 81 87 199 39 292 -28 54 -104 117 -163 135 -60 18 -88 18 -144 1z"/>
<path d="M3032 13547 c-47 -15 -116 -79 -141 -132 -54 -116 0 -254 124 -311
65 -31 126 -31 190 0 115 54 168 170 133 290 -16 55 -99 138 -154 154 -49 14
-106 14 -152 -1z"/>
<path d="M3380 12974 c-59 -26 -101 -65 -126 -118 -73 -157 27 -329 202 -344
64 -5 150 32 194 86 32 39 60 110 60 152 0 43 -28 113 -62 154 -61 75 -184
107 -268 70z"/>
<path d="M3890 12492 c-99 -50 -146 -167 -105 -265 36 -87 109 -137 200 -137
92 0 163 49 204 140 26 57 26 86 0 147 -26 61 -52 89 -111 119 -63 32 -119 31
-188 -4z"/>
<path d="M4540 12179 c-72 -29 -130 -111 -130 -185 0 -20 12 -58 26 -85 53
-97 163 -134 253 -87 149 77 149 273 0 349 -41 20 -108 24 -149 8z"/>
<path d="M5150 12011 c-101 -53 -105 -182 -8 -241 41 -25 83 -25 128 -1 36 19
80 82 80 115 0 40 -39 102 -79 124 -47 27 -76 28 -121 3z"/>
<path d="M3115 3966 c-232 -58 -350 -315 -244 -533 28 -57 105 -134 162 -162
187 -90 426 -2 497 184 88 232 -34 464 -268 514 -64 13 -82 13 -147 -3z"/>
<path d="M7325 3966 c-232 -58 -350 -315 -244 -533 28 -57 105 -134 162 -162
187 -90 426 -2 497 184 88 232 -34 464 -268 514 -64 13 -82 13 -147 -3z"/>
<path d="M10570 3891 c-93 -20 -176 -94 -206 -184 -25 -74 -16 -190 19 -250
73 -123 232 -177 359 -120 180 81 224 335 82 477 -65 65 -167 96 -254 77z"/>
<path d="M14560 3891 c-93 -20 -176 -94 -206 -184 -25 -74 -16 -190 19 -250
73 -123 232 -177 359 -120 180 81 224 335 82 477 -65 65 -167 96 -254 77z"/>
<path d="M11320 3791 l0 -91 38 0 c57 1 115 17 129 36 7 10 13 34 13 54 0 55
-31 79 -113 87 l-67 6 0 -92z"/>
<path d="M13048 3667 c-26 -67 -50 -130 -54 -139 -6 -17 3 -18 106 -18 86 0
111 3 107 13 -3 6 -26 66 -52 132 -25 66 -49 123 -53 127 -4 4 -29 -48 -54
-115z"/>
<path d="M5860 2771 c-93 -20 -176 -94 -206 -184 -25 -74 -16 -190 19 -250 73
-123 232 -177 359 -120 180 81 224 335 82 477 -65 65 -167 96 -254 77z"/>
<path d="M7230 2771 c-93 -20 -176 -94 -206 -184 -25 -74 -16 -190 19 -250 73
-123 232 -177 359 -120 180 81 224 335 82 477 -65 65 -167 96 -254 77z"/>
<path d="M14270 2771 c-93 -20 -176 -94 -206 -184 -25 -74 -16 -190 19 -250
73 -123 232 -177 359 -120 180 81 224 335 82 477 -65 65 -167 96 -254 77z"/>
<path d="M10330 2485 l0 -278 88 6 c119 9 155 21 192 64 51 58 64 97 65 198 0
79 -3 97 -28 148 -44 89 -101 120 -243 133 l-74 7 0 -278z"/>
<path d="M12748 2547 c-26 -67 -50 -130 -54 -139 -6 -17 3 -18 106 -18 86 0
111 3 107 13 -3 6 -26 66 -52 132 -25 66 -49 123 -53 127 -4 4 -29 -48 -54
-115z"/>
</g>
</svg>
